<svg width="129" height="33" viewBox="0 0 129 33" fill="none" xmlns="http://www.w3.org/2000/svg">
<path d="M53.8129 32.9547C48.2751 32.9547 45.5254 31.2505 45.5254 27.8038V25.5978C45.5254 22.1894 48.2751 20.4851 53.8129 20.4851H70.2712V19.9049C70.2712 18.0858 68.6838 17.1935 65.5089 17.1935H60.0477C58.7705 17.1935 58.1118 16.6899 58.1118 15.6827C58.1118 14.6755 58.7705 14.1335 60.0477 14.1335H65.5089C71.3952 14.1335 74.3 16.0695 74.3 19.903V27.4936C74.3 31.1337 71.512 32.9547 65.8574 32.9547H53.8129ZM70.2712 27.3787V23.1583H54.1212C51.1015 23.1583 49.5906 23.9721 49.5906 25.5212V27.5357C49.5906 29.1231 51.1015 29.9369 54.1212 29.9369H65.6238C68.722 29.9369 70.2712 29.0848 70.2712 27.3806V27.3787Z" fill="url(#paint0_linear_0_8113)"/>
<path d="M81.5786 15.3725C81.5786 14.327 82.2756 13.7468 83.6313 13.7468C84.9871 13.7468 85.6841 14.327 85.6841 15.3725V31.3272C85.6841 32.411 84.9871 32.9529 83.6313 32.9529C82.2756 32.9529 81.5786 32.411 81.5786 31.3272V15.3725Z" fill="url(#paint1_linear_0_8113)"/>
<path d="M118.019 28.6177C118.019 31.5226 115.076 32.9549 109.189 32.9549H94.0868C92.8479 32.9549 92.1509 32.4513 92.1509 31.4441C92.1509 30.4369 92.8479 29.9333 94.0868 29.9333H109.191C112.366 29.9333 113.955 29.4679 113.955 28.6158V26.4463C113.955 25.5559 112.368 25.1289 109.191 25.1289H101.214C95.2893 25.1289 92.3845 23.7348 92.3845 20.9085V19.0875C92.3845 15.7958 95.4042 14.1299 101.486 14.1299H106.792C108.069 14.1299 108.766 14.6718 108.766 15.679C108.766 16.6862 108.031 17.1898 106.792 17.1898H101.486C98.1157 17.1898 96.4134 17.8103 96.4134 19.0875V20.7917C96.4134 21.8372 98.1176 22.3791 101.448 22.3791H109.425C115.156 22.3791 118.023 23.6965 118.023 26.3295V28.6139L118.019 28.6177Z" fill="url(#paint2_linear_0_8113)"/>
<path d="M124.795 6.85301C124.795 5.8075 125.492 5.22729 126.848 5.22729C128.204 5.22729 128.901 5.8075 128.901 6.85301V31.3288C128.901 32.4126 128.204 32.9545 126.848 32.9545C125.492 32.9545 124.795 32.4126 124.795 31.3288V6.85301Z" fill="url(#paint3_linear_0_8113)"/>
<path d="M83.6815 0.817871H83.3368C80.5794 0.817871 78.3447 3.05252 78.3447 5.80992V6.1546C78.3447 8.912 80.5794 11.1466 83.3368 11.1466H83.6815C86.4389 11.1466 88.6735 8.912 88.6735 6.1546V5.80992C88.6754 3.05252 86.4408 0.817871 83.6834 0.817871H83.6815ZM83.5091 8.56541C82.0825 8.56541 80.926 7.40883 80.9279 5.98226C80.9279 4.55569 82.0845 3.39911 83.511 3.40102C84.9376 3.40102 86.0923 4.5576 86.0923 5.98226C86.0923 7.40883 84.9357 8.56541 83.511 8.56541H83.5091Z" fill="url(#paint4_linear_0_8113)"/>
<path d="M20.2955 32.8025H9.13187L0.189453 4.07959H11.3531L20.2955 32.8025Z" fill="#08F4D3"/>
<path d="M9.18848 32.8023H20.3521L29.2945 4.07935H18.1309L9.18848 32.8023Z" fill="#6A89FF"/>
<path d="M38.3009 32.8023H27.1372L18.1948 4.07935H29.3585L38.3009 32.8023Z" fill="#08F4D3"/>
<path d="M27.1948 32.8023H38.3585L47.3009 4.07935H36.1372L27.1948 32.8023Z" fill="#6A89FF"/>
<path d="M9.20068 32.8016H20.3069L14.7538 14.9666L9.20068 32.8016Z" fill="url(#paint5_linear_0_8113)"/>
<path d="M27.2212 32.8016H38.3274L32.7743 14.9666L27.2212 32.8016Z" fill="url(#paint6_linear_0_8113)"/>
<path d="M18.1411 4.07935H29.2473L23.6942 21.9163L18.1411 4.07935Z" fill="url(#paint7_linear_0_8113)"/>
<defs>
<linearGradient id="paint0_linear_0_8113" x1="45.5781" y1="14.1471" x2="62.8225" y2="40.5093" gradientUnits="userSpaceOnUse">
<stop stop-color="#6989FF"/>
<stop offset="1" stop-color="#08F4D3"/>
</linearGradient>
<linearGradient id="paint1_linear_0_8113" x1="81.5024" y1="14.0612" x2="89.3546" y2="15.7395" gradientUnits="userSpaceOnUse">
<stop stop-color="#6989FF"/>
<stop offset="1" stop-color="#08F4D3"/>
</linearGradient>
<linearGradient id="paint2_linear_0_8113" x1="89.8412" y1="15.8411" x2="107.749" y2="40.4551" gradientUnits="userSpaceOnUse">
<stop stop-color="#6989FF"/>
<stop offset="1" stop-color="#08F4D3"/>
</linearGradient>
<linearGradient id="paint3_linear_0_8113" x1="124.75" y1="4.59522" x2="132.785" y2="5.78482" gradientUnits="userSpaceOnUse">
<stop stop-color="#6989FF"/>
<stop offset="1" stop-color="#08F4D3"/>
</linearGradient>
<linearGradient id="paint4_linear_0_8113" x1="78.2603" y1="0.491099" x2="88.591" y2="10.8218" gradientUnits="userSpaceOnUse">
<stop stop-color="#6989FF"/>
<stop offset="1" stop-color="#08F4D3"/>
</linearGradient>
<linearGradient id="paint5_linear_0_8113" x1="9.20068" y1="23.8841" x2="20.3069" y2="23.8841" gradientUnits="userSpaceOnUse">
<stop stop-color="#6989FF"/>
<stop offset="1" stop-color="#08F4D3"/>
</linearGradient>
<linearGradient id="paint6_linear_0_8113" x1="27.2212" y1="23.8841" x2="38.3274" y2="23.8841" gradientUnits="userSpaceOnUse">
<stop stop-color="#6989FF"/>
<stop offset="1" stop-color="#08F4D3"/>
</linearGradient>
<linearGradient id="paint7_linear_0_8113" x1="18.1411" y1="12.9969" x2="29.2473" y2="12.9969" gradientUnits="userSpaceOnUse">
<stop stop-color="#6989FF"/>
<stop offset="1" stop-color="#08F4D3"/>
</linearGradient>
</defs>
</svg>
